<mxfile host="app.diagrams.net" modified="2021-03-10T12:54:10.107Z" agent="5.0 (Windows NT 10.0; Win64; x64) AppleWebKit/537.36 (KHTML, like Gecko) Chrome/89.0.4389.82 Safari/537.36" etag="UXO5T9IB0G31DHCOB4l1" version="14.4.6" type="github">
  <diagram id="5mlbQNRHpYYxWKTR29bP" name="第 1 页">
    <mxGraphModel dx="782" dy="381" grid="1" gridSize="10" guides="1" tooltips="1" connect="1" arrows="1" fold="1" page="1" pageScale="1" pageWidth="827" pageHeight="1169" math="0" shadow="0">
      <root>
        <mxCell id="0" />
        <mxCell id="1" parent="0" />
        <mxCell id="Q9XZT8WB5bU6YB1NoBJ2-1" value="&lt;b&gt;&lt;font style=&quot;font-size: 26px&quot; color=&quot;#63cdda&quot;&gt;互联网&lt;/font&gt;&lt;/b&gt;" style="ellipse;whiteSpace=wrap;html=1;" vertex="1" parent="1">
          <mxGeometry x="150" y="40" width="470" height="320" as="geometry" />
        </mxCell>
        <mxCell id="Q9XZT8WB5bU6YB1NoBJ2-2" value="万维网&lt;br&gt;http协议" style="ellipse;whiteSpace=wrap;html=1;aspect=fixed;fillColor=#dae8fc;strokeColor=#6c8ebf;" vertex="1" parent="1">
          <mxGeometry x="190" y="130" width="80" height="80" as="geometry" />
        </mxCell>
        <mxCell id="Q9XZT8WB5bU6YB1NoBJ2-3" value="电子邮件" style="ellipse;whiteSpace=wrap;html=1;aspect=fixed;" vertex="1" parent="1">
          <mxGeometry x="280" y="70" width="80" height="80" as="geometry" />
        </mxCell>
        <mxCell id="Q9XZT8WB5bU6YB1NoBJ2-4" value="BT" style="ellipse;whiteSpace=wrap;html=1;aspect=fixed;" vertex="1" parent="1">
          <mxGeometry x="400" y="80" width="80" height="80" as="geometry" />
        </mxCell>
        <mxCell id="Q9XZT8WB5bU6YB1NoBJ2-5" value="SSH安全登录" style="ellipse;whiteSpace=wrap;html=1;aspect=fixed;" vertex="1" parent="1">
          <mxGeometry x="220" y="230" width="80" height="80" as="geometry" />
        </mxCell>
        <mxCell id="Q9XZT8WB5bU6YB1NoBJ2-6" value="Magnet&lt;br&gt;点对点下载" style="ellipse;whiteSpace=wrap;html=1;aspect=fixed;" vertex="1" parent="1">
          <mxGeometry x="334" y="260" width="80" height="80" as="geometry" />
        </mxCell>
        <mxCell id="Q9XZT8WB5bU6YB1NoBJ2-7" value="FTP&lt;br&gt;文件下载" style="ellipse;whiteSpace=wrap;html=1;aspect=fixed;" vertex="1" parent="1">
          <mxGeometry x="450" y="240" width="80" height="80" as="geometry" />
        </mxCell>
        <mxCell id="Q9XZT8WB5bU6YB1NoBJ2-8" value="各种即时通讯" style="ellipse;whiteSpace=wrap;html=1;aspect=fixed;" vertex="1" parent="1">
          <mxGeometry x="510" y="150" width="80" height="80" as="geometry" />
        </mxCell>
      </root>
    </mxGraphModel>
  </diagram>
</mxfile>
